Coordinates
version=1
nRows=19
nColumns=24
inDegrees=yes

Units are S.I. units (second, meters, Newtons, ...)
Angles are in degrees.

endheader
time	pelvis_tilt	pelvis_list	pelvis_rotation	pelvis_tx	pelvis_ty	pelvis_tz	hip_flexion_r	hip_adduction_r	hip_rotation_r	knee_angle_r	ankle_angle_r	subtalar_angle_r	mtp_angle_r	hip_flexion_l	hip_adduction_l	hip_rotation_l	knee_angle_l	ankle_angle_l	subtalar_angle_l	mtp_angle_l	lumbar_extension	lumbar_bending	lumbar_rotation
      1.06300000	     -1.58229038	     -5.57748855	     -2.99335629	     -0.14120017	      1.05222797	      0.34236710	    -11.68658405	     10.41741339	      1.40273695	     -6.01639547	      7.86020866	     -9.78950883	      1.69439422	     21.38072790	     -3.39844560	     -7.05602111	      5.40233616	      3.08740637	      1.38808480	     -0.44875318	      4.96279675	     10.56156138	      1.69447338
      1.06716667	     -1.58962630	     -5.57589231	     -2.90238376	     -0.13548342	      1.05162368	      0.34219871	    -11.81568537	     10.41319086	      1.35378934	     -6.41266987	      8.16927451	     -9.78812247	      1.69613047	     21.38640940	     -3.27993171	     -7.06736171	      5.35565604	      3.11867671	      1.80553746	     -0.51486204	      4.98410810	     10.57364252	      1.69287453
      1.07133333	     -1.60921715	     -5.57539732	     -2.86044096	     -0.12977725	      1.05105785	      0.34209353	    -11.92135299	     10.39882025	      1.42126869	     -6.80944604	      8.13494030	     -9.78279669	      1.69644773	     21.39602491	     -3.18346995	     -7.03842604	      5.22905018	      3.11116808	      1.82308628	     -0.51879622	      5.00942588	     10.55903699	      1.69574045
      1.07550000	     -1.59365986	     -5.61745422	     -2.88705877	     -0.12420480	      1.05059048	      0.34210623	    -12.01721081	     10.42048105	      1.43319638	     -7.31174770	      8.10866416	     -9.78072468	      1.69718600	     21.36218988	     -3.16677279	     -7.00619027	      5.06288111	      3.09021444	      1.85729319	     -0.52825100	      5.05920446	     10.52002205	      1.70207657
      1.07966667	     -1.59413717	     -5.62264380	     -2.88984292	     -0.11847596	      1.05011939	      0.34207842	    -12.09795224	     10.40367038	      1.43943945	     -7.81488397	      8.09514993	     -9.77494072	      1.69870786	     21.34201633	     -3.10326320	     -6.98059703	      4.82472309	      3.04830413	      1.87635854	     -0.53912932	      5.08512688	     10.49232316	      1.70801048
      1.08383333	     -1.59005570	     -5.63049005	     -2.89278100	     -0.11273360	      1.04967850	      0.34206434	    -12.16520707	     10.39018942	      1.42397276	     -8.35114525	      8.08466366	     -9.76082734	      1.70127084	     21.31834809	     -3.04693892	     -6.95836374	      4.52771550	      2.97387240	      1.87457142	     -0.55171928	      5.10993537	     10.46054452	      1.71732877
      1.08800000	     -1.58065480	     -5.63346238	     -2.89261568	     -0.10693491	      1.04927475	      0.34205712	    -12.22844534	     10.37019732	      1.41025767	     -8.91161140	      8.06055019	     -9.74120466	      1.70424084	     21.28200696	     -2.98809425	     -6.92576387	      4.19274577	      2.88025477	      1.85285708	     -0.56222554	      5.14162677	     10.42551581	      1.72910563
      1.09216667	     -1.61298870	     -5.61786695	     -2.88816095	     -0.10106591	      1.04883785	      0.34193576	    -12.20908689	     10.32185514	      1.21455829	     -9.54215278	      8.05303534	     -9.61555727	      1.71685350	     21.29173177	     -2.89771944	     -6.94515076	      3.82292194	      2.56525500	      1.68803946	     -0.59718316	      5.08280782	     10.41123990	      1.75090324
      1.09633333	     -1.61985769	     -5.60022570	     -2.89439195	     -0.09514815	      1.04848105	      0.34181432	    -12.20633347	     10.26166932	      1.04053306	    -10.19811972	      8.00393766	     -9.30560498	      1.74661845	     21.23600976	     -2.81245345	     -6.80136776	      3.49068896	      2.09739937	      1.29620318	     -0.65377157	      5.13022538	     10.38161161	      1.80901242
      1.10050000	     -1.57933913	     -5.59210377	     -2.89437821	     -0.08923123	      1.04821494	      0.34188580	    -12.26995941	     10.22877789	      1.08221497	    -10.82542489	      7.95006828	     -9.28667345	      1.75140096	     21.12802339	     -2.76143510	     -6.69954523	      3.10338001	      2.02832457	      1.24604731	     -0.65956466	      5.22629066	     10.32448641	      1.82839598
      1.10466667	     -1.60982460	     -5.53933731	     -2.89677993	     -0.08314075	      1.04790548	      0.34158804	    -12.20452425	     10.10629694	      0.78046143	    -11.55469418	      7.85441086	     -8.76456778	      1.84376647	     21.02242652	     -2.62507290	     -6.21038108	      2.86531294	      1.23119305	      0.09410829	     -0.75012379	      5.31790658	     10.30576863	      1.92801379
      1.10883333	     -1.60132183	     -5.52901250	     -2.88554871	     -0.07721749	      1.04764770	      0.34155668	    -12.16653391	     10.06138371	      0.62241930	    -12.30144792	      7.74855127	     -8.74336136	      1.86638405	     20.95058431	     -2.56329158	     -6.18874719	      2.44579069	      1.06151723	     -0.10532870	     -0.76590599	      5.28175450	     10.21990324	      1.94018834
      1.11300000	     -1.54720739	     -5.51687675	     -2.90696188	     -0.07126179	      1.04752398	      0.34165238	    -12.17593245	     10.01046288	      0.60086994	    -13.06082876	      7.63637909	     -8.71719174	      1.87439997	     20.78836978	     -2.52666233	     -6.08844599	      2.07954643	      0.91791373	     -0.15303942	     -0.77047129	      5.37409537	     10.15098608	      1.95692985
      1.11716667	     -1.53752920	     -5.45069373	     -2.83786491	     -0.06506982	      1.04735429	      0.34130682	    -12.10301285	      9.87893973	      0.20211290	    -13.84159663	      7.19266599	     -8.19865801	      1.96480818	     20.65178126	     -2.36505504	     -5.84772055	      1.79888511	     -0.16118825	     -1.04248218	     -0.80985841	      5.46533756	     10.07179464	      2.01879345
      1.12133333	     -1.54136401	     -5.37161883	     -2.86398568	     -0.05890213	      1.04724433	      0.34098598	    -11.98010683	      9.69759808	     -0.12695958	    -14.73124735	      7.05759054	     -7.77198718	      2.13811620	     20.45367522	     -2.21846363	     -5.31247518	      1.61064470	     -0.83159257	     -2.27334779	     -0.83334772	      5.49684529	     10.01057238	      2.05226616
      1.12550000	     -1.53721062	     -5.31475548	     -2.89083467	     -0.05280878	      1.04717646	      0.34094182	    -11.85168832	      9.56920614	     -0.35047147	    -15.63877510	      6.84064202	     -7.70435843	      2.18079075	     20.30858066	     -2.13175682	     -5.26939444	      1.28794041	     -1.09004713	     -2.41474551	     -0.83596024	      5.46104511	      9.90441931	      2.05898992
      1.12966667	     -1.48033669	     -5.24570816	     -2.87372493	     -0.04669916	      1.04720906	      0.34062014	    -11.75357841	      9.39961721	     -0.66472529	    -16.57175964	      6.54820927	     -7.20298230	      2.46937376	     20.05533834	     -1.99739373	     -4.79938181	      1.09634512	     -1.97480652	     -3.61412287	     -0.82499675	      5.52234992	      9.79068212	      2.07726407
      1.13383333	     -1.47465156	     -5.14219271	     -2.90879162	     -0.04044795	      1.04723972	      0.34050599	    -11.58243613	      9.19497720	     -0.96645133	    -17.55156026	      6.20348800	     -7.09339816	      2.51246202	     19.87383683	     -1.86435823	     -4.79363557	      0.82158031	     -2.25737524	     -3.66368101	     -0.82266945	      5.52741026	      9.69133816	      2.08754631
      1.13800000	     -1.45910169	     -5.02926980	     -2.92132518	     -0.03420708	      1.04731702	      0.34033069	    -11.39362475	      8.97363231	     -1.31477121	    -18.56106477	      5.68920916	     -6.82230802	      2.57464795	     19.68358045	     -1.71537147	     -4.77627668	      0.55881348	     -2.75720293	     -3.85054465	     -0.82089310	      5.55208965	      9.53077099	      2.11169019
